<svg xmlns="http://www.w3.org/2000/svg" viewBox="0 0 32 32" width="32" height="32">
  <!-- Background circle -->
  <circle cx="16" cy="16" r="15" fill="#667eea" stroke="#764ba2" stroke-width="1"/>
  
  <!-- Money bag -->
  <path d="M12 8c0-2.2 1.8-4 4-4s4 1.8 4 4c0 1.1-.4 2-1 2.5V12c0 1.1-.9 2-2 2s-2-.9-2-2v-1.5c-.6-.5-1-1.4-1-2.5z" fill="#FFD700"/>
  
  <!-- Bag body -->
  <path d="M10 12v8c0 2.2 1.8 4 4 4s4-1.8 4-4v-8H10z" fill="#FFD700"/>
  
  <!-- Bag opening -->
  <path d="M12 12h8v1c0 .6-.4 1-1 1H13c-.6 0-1-.4-1-1v-1z" fill="#FFA500"/>
  
  <!-- Dollar sign -->
  <text x="16" y="20" text-anchor="middle" font-family="Arial, sans-serif" font-size="8" font-weight="bold" fill="#333">₹</text>
  
  <!-- Decorative elements -->
  <circle cx="12" cy="10" r="1" fill="#FFA500"/>
  <circle cx="20" cy="10" r="1" fill="#FFA500"/>
</svg>
